<svg width="25" height="24" viewBox="0 0 25 24" fill="none" xmlns="http://www.w3.org/2000/svg">
<rect x="0.5" y="0.00622559" width="24" height="24" rx="12" fill="#0A66C2"/>
<path d="M12.1833 19.0062C10.9648 19.0062 9.88 18.8408 8.9289 18.5098C7.97781 18.1827 7.17377 17.7015 6.51678 17.0663C5.8598 16.4349 5.35942 15.6627 5.01565 14.7499C4.67188 13.837 4.5 12.7985 4.5 11.6346C4.5 10.4859 4.67188 9.44365 5.01565 8.50794C5.36324 7.57222 5.86935 6.76963 6.53397 6.10018C7.19859 5.42692 8.01027 4.90961 8.96901 4.54826C9.93157 4.1869 11.0278 4.00623 12.2577 4.00623C13.396 4.00623 14.412 4.17169 15.3058 4.50261C16.2035 4.83354 16.9636 5.3052 17.5862 5.9176C18.2126 6.5262 18.6882 7.25081 19.0128 8.09143C19.3413 8.92825 19.5036 9.85446 19.4998 10.8701C19.5036 11.5699 19.4425 12.2128 19.3165 12.7985C19.1904 13.3843 18.9918 13.8959 18.7206 14.3333C18.4532 14.767 18.1018 15.1112 17.6664 15.3661C17.2309 15.6171 16.7038 15.7597 16.085 15.794C15.642 15.8282 15.2829 15.7959 15.0079 15.697C14.7329 15.5981 14.5228 15.4516 14.3777 15.2577C14.2363 15.0599 14.1447 14.8297 14.1026 14.5673H14.0339C13.9422 14.7955 13.7627 15.0028 13.4953 15.1892C13.2279 15.3718 12.9014 15.5144 12.5156 15.6171C12.1336 15.716 11.7268 15.7521 11.2952 15.7255C10.8445 15.6989 10.4167 15.5943 10.0118 15.4117C9.61071 15.2291 9.25358 14.9648 8.94036 14.6186C8.63097 14.2725 8.38651 13.8446 8.20699 13.3349C8.03128 12.8252 7.94152 12.2356 7.9377 11.5661C7.94152 10.9043 8.0351 10.328 8.21845 9.83734C8.40561 9.34666 8.65198 8.93395 8.95755 8.59923C9.26694 8.2645 9.61071 8.00204 9.98886 7.81186C10.367 7.62167 10.7471 7.49995 11.129 7.4467C11.5607 7.38203 11.9694 7.38203 12.3551 7.4467C12.7409 7.51136 13.0656 7.61596 13.3292 7.76051C13.5965 7.90505 13.7627 8.061 13.8276 8.22836H13.9078V7.58934H15.7012V13.158C15.705 13.4205 15.7642 13.624 15.8788 13.7685C15.9934 13.913 16.1481 13.9853 16.3429 13.9853C16.6064 13.9853 16.8261 13.8693 17.0018 13.6373C17.1813 13.4052 17.315 13.0496 17.4028 12.5703C17.4945 12.091 17.5403 11.4806 17.5403 10.7388C17.5403 10.0237 17.4448 9.39611 17.2539 8.85598C17.0667 8.31205 16.8031 7.84989 16.4632 7.46952C16.1271 7.08534 15.7355 6.77344 15.2886 6.5338C14.8417 6.29417 14.3566 6.1192 13.8334 6.00889C13.3139 5.89858 12.7791 5.84343 12.2291 5.84343C11.278 5.84343 10.4472 5.98797 9.73676 6.27705C9.0263 6.56233 8.43426 6.96362 7.96062 7.48093C7.48698 7.99824 7.13175 8.60493 6.89493 9.30101C6.66193 9.99329 6.54352 10.7483 6.5397 11.5661C6.54352 12.4676 6.66957 13.2664 6.91785 13.9625C7.16995 14.6548 7.54045 15.2367 8.02937 15.7084C8.51829 16.1801 9.1218 16.5376 9.83989 16.781C10.558 17.0245 11.383 17.1462 12.315 17.1462C12.7543 17.1462 13.184 17.1139 13.6042 17.0492C14.0243 16.9883 14.4044 16.9123 14.7443 16.821C15.0843 16.7335 15.3574 16.6479 15.5637 16.5642L16.1309 18.2189C15.8902 18.3558 15.5637 18.4832 15.1511 18.6011C14.7424 18.7228 14.2803 18.8198 13.7646 18.8921C13.2528 18.9682 12.7257 19.0062 12.1833 19.0062ZM11.9197 13.8484C12.3857 13.8484 12.7562 13.759 13.0312 13.5802C13.3101 13.4014 13.5087 13.1371 13.6271 12.7871C13.7493 12.4334 13.8066 11.9979 13.799 11.4806C13.7952 11.0241 13.736 10.638 13.6214 10.3223C13.5106 10.0028 13.3177 9.76127 13.0427 9.59771C12.7715 9.43034 12.3933 9.34666 11.9082 9.34666C11.4843 9.34666 11.1233 9.43605 10.8254 9.61482C10.5313 9.7936 10.3059 10.0446 10.1493 10.368C9.9965 10.6875 9.9182 11.064 9.91438 11.4977C9.9182 11.9009 9.98313 12.2831 10.1092 12.6445C10.2352 13.002 10.4434 13.293 10.7337 13.5174C11.024 13.7381 11.4193 13.8484 11.9197 13.8484Z" fill="white"/>
</svg>
