<svg xmlns="http://www.w3.org/2000/svg" version="1.1" xmlns:xlink="http://www.w3.org/1999/xlink" xmlns:svgjs="http://svgjs.dev/svgjs" width="1440" height="560" preserveAspectRatio="none" viewBox="0 0 1440 560"><g mask="url(&quot;#SvgjsMask1001&quot;)" fill="none"><path d="M45.6 193.26L110.55 230.76L110.55 305.76L45.6 343.26L-19.35 305.76L-19.35 230.76zM110.55 305.76L175.51 343.26L175.51 418.26L110.55 455.76L45.6 418.26L45.6 343.26zM240.46 530.76L305.42 568.26L305.42 643.26L240.46 680.76L175.51 643.26L175.51 568.26zM370.37 305.76L435.32 343.26L435.32 418.26L370.37 455.76L305.42 418.26L305.42 343.26zM435.32 193.26L500.28 230.76L500.28 305.76L435.32 343.26L370.37 305.76L370.37 230.76zM500.28 530.76L565.23 568.26L565.23 643.26L500.28 680.76L435.32 643.26L435.32 568.26zM565.23 -31.74L630.18 5.76L630.18 80.76L565.23 118.26L500.28 80.76L500.28 5.76zM630.18 80.76L695.14 118.26L695.14 193.26L630.18 230.76L565.23 193.26L565.23 118.26zM565.23 193.26L630.18 230.76L630.18 305.76L565.23 343.26L500.28 305.76L500.28 230.76zM630.18 530.76L695.14 568.26L695.14 643.26L630.18 680.76L565.23 643.26L565.23 568.26zM695.14 -31.74L760.09 5.76L760.09 80.76L695.14 118.26L630.18 80.76L630.18 5.76zM760.09 80.76L825.05 118.26L825.05 193.26L760.09 230.76L695.14 193.26L695.14 118.26zM695.14 418.26L760.09 455.76L760.09 530.76L695.14 568.26L630.18 530.76L630.18 455.76zM760.09 530.76L825.05 568.26L825.05 643.26L760.09 680.76L695.14 643.26L695.14 568.26zM825.04 -31.74L890 5.76L890 80.76L825.04 118.26L760.09 80.76L760.09 5.76zM890 305.76L954.95 343.26L954.95 418.26L890 455.76L825.04 418.26L825.04 343.26zM954.95 418.26L1019.91 455.76L1019.91 530.76L954.95 568.26L890 530.76L890 455.76zM1019.91 530.76L1084.86 568.26L1084.86 643.26L1019.91 680.76L954.95 643.26L954.95 568.26zM1084.86 -31.74L1149.81 5.76L1149.81 80.76L1084.86 118.26L1019.91 80.76L1019.91 5.76zM1084.86 193.26L1149.81 230.76L1149.81 305.76L1084.86 343.26L1019.91 305.76L1019.91 230.76zM1084.86 418.26L1149.81 455.76L1149.81 530.76L1084.86 568.26L1019.91 530.76L1019.91 455.76zM1409.63 80.76L1474.58 118.26L1474.58 193.26L1409.63 230.76L1344.67 193.26L1344.67 118.26zM1344.67 418.26L1409.63 455.76L1409.63 530.76L1344.67 568.26L1279.72 530.76L1279.72 455.76zM1474.58 193.26L1539.54 230.76L1539.54 305.76L1474.58 343.26L1409.63 305.76L1409.63 230.76zM1539.54 305.76L1604.49 343.26L1604.49 418.26L1539.54 455.76L1474.58 418.26L1474.58 343.26zM1474.58 418.26L1539.54 455.76L1539.54 530.76L1474.58 568.26L1409.63 530.76L1409.63 455.76z" stroke="#03305d" stroke-width="2"></path><path d="M38.1 193.26 a7.5 7.5 0 1 0 15 0 a7.5 7.5 0 1 0 -15 0zM103.05 230.76 a7.5 7.5 0 1 0 15 0 a7.5 7.5 0 1 0 -15 0zM103.05 305.76 a7.5 7.5 0 1 0 15 0 a7.5 7.5 0 1 0 -15 0zM38.1 343.26 a7.5 7.5 0 1 0 15 0 a7.5 7.5 0 1 0 -15 0zM-26.85 305.76 a7.5 7.5 0 1 0 15 0 a7.5 7.5 0 1 0 -15 0zM-26.85 230.76 a7.5 7.5 0 1 0 15 0 a7.5 7.5 0 1 0 -15 0zM168.01 343.26 a7.5 7.5 0 1 0 15 0 a7.5 7.5 0 1 0 -15 0zM168.01 418.26 a7.5 7.5 0 1 0 15 0 a7.5 7.5 0 1 0 -15 0zM103.05 455.76 a7.5 7.5 0 1 0 15 0 a7.5 7.5 0 1 0 -15 0zM38.1 418.26 a7.5 7.5 0 1 0 15 0 a7.5 7.5 0 1 0 -15 0zM232.96 530.76 a7.5 7.5 0 1 0 15 0 a7.5 7.5 0 1 0 -15 0zM297.92 568.26 a7.5 7.5 0 1 0 15 0 a7.5 7.5 0 1 0 -15 0zM297.92 643.26 a7.5 7.5 0 1 0 15 0 a7.5 7.5 0 1 0 -15 0zM232.96 680.76 a7.5 7.5 0 1 0 15 0 a7.5 7.5 0 1 0 -15 0zM168.01 643.26 a7.5 7.5 0 1 0 15 0 a7.5 7.5 0 1 0 -15 0zM168.01 568.26 a7.5 7.5 0 1 0 15 0 a7.5 7.5 0 1 0 -15 0zM362.87 305.76 a7.5 7.5 0 1 0 15 0 a7.5 7.5 0 1 0 -15 0zM427.82 343.26 a7.5 7.5 0 1 0 15 0 a7.5 7.5 0 1 0 -15 0zM427.82 418.26 a7.5 7.5 0 1 0 15 0 a7.5 7.5 0 1 0 -15 0zM362.87 455.76 a7.5 7.5 0 1 0 15 0 a7.5 7.5 0 1 0 -15 0zM297.92 418.26 a7.5 7.5 0 1 0 15 0 a7.5 7.5 0 1 0 -15 0zM297.92 343.26 a7.5 7.5 0 1 0 15 0 a7.5 7.5 0 1 0 -15 0zM427.82 193.26 a7.5 7.5 0 1 0 15 0 a7.5 7.5 0 1 0 -15 0zM492.78 230.76 a7.5 7.5 0 1 0 15 0 a7.5 7.5 0 1 0 -15 0zM492.78 305.76 a7.5 7.5 0 1 0 15 0 a7.5 7.5 0 1 0 -15 0zM362.87 230.76 a7.5 7.5 0 1 0 15 0 a7.5 7.5 0 1 0 -15 0zM492.78 530.76 a7.5 7.5 0 1 0 15 0 a7.5 7.5 0 1 0 -15 0zM557.73 568.26 a7.5 7.5 0 1 0 15 0 a7.5 7.5 0 1 0 -15 0zM557.73 643.26 a7.5 7.5 0 1 0 15 0 a7.5 7.5 0 1 0 -15 0zM492.78 680.76 a7.5 7.5 0 1 0 15 0 a7.5 7.5 0 1 0 -15 0zM427.82 643.26 a7.5 7.5 0 1 0 15 0 a7.5 7.5 0 1 0 -15 0zM427.82 568.26 a7.5 7.5 0 1 0 15 0 a7.5 7.5 0 1 0 -15 0zM557.73 -31.74 a7.5 7.5 0 1 0 15 0 a7.5 7.5 0 1 0 -15 0zM622.68 5.76 a7.5 7.5 0 1 0 15 0 a7.5 7.5 0 1 0 -15 0zM622.68 80.76 a7.5 7.5 0 1 0 15 0 a7.5 7.5 0 1 0 -15 0zM557.73 118.26 a7.5 7.5 0 1 0 15 0 a7.5 7.5 0 1 0 -15 0zM492.78 80.76 a7.5 7.5 0 1 0 15 0 a7.5 7.5 0 1 0 -15 0zM492.78 5.76 a7.5 7.5 0 1 0 15 0 a7.5 7.5 0 1 0 -15 0zM687.64 118.26 a7.5 7.5 0 1 0 15 0 a7.5 7.5 0 1 0 -15 0zM687.64 193.26 a7.5 7.5 0 1 0 15 0 a7.5 7.5 0 1 0 -15 0zM622.68 230.76 a7.5 7.5 0 1 0 15 0 a7.5 7.5 0 1 0 -15 0zM557.73 193.26 a7.5 7.5 0 1 0 15 0 a7.5 7.5 0 1 0 -15 0zM622.68 305.76 a7.5 7.5 0 1 0 15 0 a7.5 7.5 0 1 0 -15 0zM557.73 343.26 a7.5 7.5 0 1 0 15 0 a7.5 7.5 0 1 0 -15 0zM622.68 530.76 a7.5 7.5 0 1 0 15 0 a7.5 7.5 0 1 0 -15 0zM687.64 568.26 a7.5 7.5 0 1 0 15 0 a7.5 7.5 0 1 0 -15 0zM687.64 643.26 a7.5 7.5 0 1 0 15 0 a7.5 7.5 0 1 0 -15 0zM622.68 680.76 a7.5 7.5 0 1 0 15 0 a7.5 7.5 0 1 0 -15 0zM687.64 -31.74 a7.5 7.5 0 1 0 15 0 a7.5 7.5 0 1 0 -15 0zM752.59 5.76 a7.5 7.5 0 1 0 15 0 a7.5 7.5 0 1 0 -15 0zM752.59 80.76 a7.5 7.5 0 1 0 15 0 a7.5 7.5 0 1 0 -15 0zM817.55 118.26 a7.5 7.5 0 1 0 15 0 a7.5 7.5 0 1 0 -15 0zM817.55 193.26 a7.5 7.5 0 1 0 15 0 a7.5 7.5 0 1 0 -15 0zM752.59 230.76 a7.5 7.5 0 1 0 15 0 a7.5 7.5 0 1 0 -15 0zM687.64 418.26 a7.5 7.5 0 1 0 15 0 a7.5 7.5 0 1 0 -15 0zM752.59 455.76 a7.5 7.5 0 1 0 15 0 a7.5 7.5 0 1 0 -15 0zM752.59 530.76 a7.5 7.5 0 1 0 15 0 a7.5 7.5 0 1 0 -15 0zM622.68 455.76 a7.5 7.5 0 1 0 15 0 a7.5 7.5 0 1 0 -15 0zM817.55 568.26 a7.5 7.5 0 1 0 15 0 a7.5 7.5 0 1 0 -15 0zM817.55 643.26 a7.5 7.5 0 1 0 15 0 a7.5 7.5 0 1 0 -15 0zM752.59 680.76 a7.5 7.5 0 1 0 15 0 a7.5 7.5 0 1 0 -15 0zM817.54 -31.74 a7.5 7.5 0 1 0 15 0 a7.5 7.5 0 1 0 -15 0zM882.5 5.76 a7.5 7.5 0 1 0 15 0 a7.5 7.5 0 1 0 -15 0zM882.5 80.76 a7.5 7.5 0 1 0 15 0 a7.5 7.5 0 1 0 -15 0zM817.54 118.26 a7.5 7.5 0 1 0 15 0 a7.5 7.5 0 1 0 -15 0zM882.5 305.76 a7.5 7.5 0 1 0 15 0 a7.5 7.5 0 1 0 -15 0zM947.45 343.26 a7.5 7.5 0 1 0 15 0 a7.5 7.5 0 1 0 -15 0zM947.45 418.26 a7.5 7.5 0 1 0 15 0 a7.5 7.5 0 1 0 -15 0zM882.5 455.76 a7.5 7.5 0 1 0 15 0 a7.5 7.5 0 1 0 -15 0zM817.54 418.26 a7.5 7.5 0 1 0 15 0 a7.5 7.5 0 1 0 -15 0zM817.54 343.26 a7.5 7.5 0 1 0 15 0 a7.5 7.5 0 1 0 -15 0zM1012.41 455.76 a7.5 7.5 0 1 0 15 0 a7.5 7.5 0 1 0 -15 0zM1012.41 530.76 a7.5 7.5 0 1 0 15 0 a7.5 7.5 0 1 0 -15 0zM947.45 568.26 a7.5 7.5 0 1 0 15 0 a7.5 7.5 0 1 0 -15 0zM882.5 530.76 a7.5 7.5 0 1 0 15 0 a7.5 7.5 0 1 0 -15 0zM1077.36 568.26 a7.5 7.5 0 1 0 15 0 a7.5 7.5 0 1 0 -15 0zM1077.36 643.26 a7.5 7.5 0 1 0 15 0 a7.5 7.5 0 1 0 -15 0zM1012.41 680.76 a7.5 7.5 0 1 0 15 0 a7.5 7.5 0 1 0 -15 0zM947.45 643.26 a7.5 7.5 0 1 0 15 0 a7.5 7.5 0 1 0 -15 0zM1077.36 -31.74 a7.5 7.5 0 1 0 15 0 a7.5 7.5 0 1 0 -15 0zM1142.31 5.76 a7.5 7.5 0 1 0 15 0 a7.5 7.5 0 1 0 -15 0zM1142.31 80.76 a7.5 7.5 0 1 0 15 0 a7.5 7.5 0 1 0 -15 0zM1077.36 118.26 a7.5 7.5 0 1 0 15 0 a7.5 7.5 0 1 0 -15 0zM1012.41 80.76 a7.5 7.5 0 1 0 15 0 a7.5 7.5 0 1 0 -15 0zM1012.41 5.76 a7.5 7.5 0 1 0 15 0 a7.5 7.5 0 1 0 -15 0zM1077.36 193.26 a7.5 7.5 0 1 0 15 0 a7.5 7.5 0 1 0 -15 0zM1142.31 230.76 a7.5 7.5 0 1 0 15 0 a7.5 7.5 0 1 0 -15 0zM1142.31 305.76 a7.5 7.5 0 1 0 15 0 a7.5 7.5 0 1 0 -15 0zM1077.36 343.26 a7.5 7.5 0 1 0 15 0 a7.5 7.5 0 1 0 -15 0zM1012.41 305.76 a7.5 7.5 0 1 0 15 0 a7.5 7.5 0 1 0 -15 0zM1012.41 230.76 a7.5 7.5 0 1 0 15 0 a7.5 7.5 0 1 0 -15 0zM1077.36 418.26 a7.5 7.5 0 1 0 15 0 a7.5 7.5 0 1 0 -15 0zM1142.31 455.76 a7.5 7.5 0 1 0 15 0 a7.5 7.5 0 1 0 -15 0zM1142.31 530.76 a7.5 7.5 0 1 0 15 0 a7.5 7.5 0 1 0 -15 0zM1402.13 80.76 a7.5 7.5 0 1 0 15 0 a7.5 7.5 0 1 0 -15 0zM1467.08 118.26 a7.5 7.5 0 1 0 15 0 a7.5 7.5 0 1 0 -15 0zM1467.08 193.26 a7.5 7.5 0 1 0 15 0 a7.5 7.5 0 1 0 -15 0zM1402.13 230.76 a7.5 7.5 0 1 0 15 0 a7.5 7.5 0 1 0 -15 0zM1337.17 193.26 a7.5 7.5 0 1 0 15 0 a7.5 7.5 0 1 0 -15 0zM1337.17 118.26 a7.5 7.5 0 1 0 15 0 a7.5 7.5 0 1 0 -15 0zM1337.17 418.26 a7.5 7.5 0 1 0 15 0 a7.5 7.5 0 1 0 -15 0zM1402.13 455.76 a7.5 7.5 0 1 0 15 0 a7.5 7.5 0 1 0 -15 0zM1402.13 530.76 a7.5 7.5 0 1 0 15 0 a7.5 7.5 0 1 0 -15 0zM1337.17 568.26 a7.5 7.5 0 1 0 15 0 a7.5 7.5 0 1 0 -15 0zM1272.22 530.76 a7.5 7.5 0 1 0 15 0 a7.5 7.5 0 1 0 -15 0zM1272.22 455.76 a7.5 7.5 0 1 0 15 0 a7.5 7.5 0 1 0 -15 0zM1532.04 230.76 a7.5 7.5 0 1 0 15 0 a7.5 7.5 0 1 0 -15 0zM1532.04 305.76 a7.5 7.5 0 1 0 15 0 a7.5 7.5 0 1 0 -15 0zM1467.08 343.26 a7.5 7.5 0 1 0 15 0 a7.5 7.5 0 1 0 -15 0zM1402.13 305.76 a7.5 7.5 0 1 0 15 0 a7.5 7.5 0 1 0 -15 0zM1596.99 343.26 a7.5 7.5 0 1 0 15 0 a7.5 7.5 0 1 0 -15 0zM1596.99 418.26 a7.5 7.5 0 1 0 15 0 a7.5 7.5 0 1 0 -15 0zM1532.04 455.76 a7.5 7.5 0 1 0 15 0 a7.5 7.5 0 1 0 -15 0zM1467.08 418.26 a7.5 7.5 0 1 0 15 0 a7.5 7.5 0 1 0 -15 0zM1532.04 530.76 a7.5 7.5 0 1 0 15 0 a7.5 7.5 0 1 0 -15 0zM1467.08 568.26 a7.5 7.5 0 1 0 15 0 a7.5 7.5 0 1 0 -15 0z" fill="#03305d"></path><path d="M41.56 -46.63L84.86 -21.63L84.86 28.37L41.56 53.37L-1.74 28.37L-1.74 -21.63zM84.86 28.37L128.17 53.37L128.17 103.37L84.86 128.37L41.56 103.37L41.56 53.37zM41.56 253.37L84.86 278.37L84.86 328.37L41.56 353.37L-1.74 328.37L-1.74 278.37zM84.86 478.37L128.17 503.37L128.17 553.37L84.86 578.37L41.56 553.37L41.56 503.37zM128.17 -46.63L171.47 -21.63L171.47 28.37L128.17 53.37L84.86 28.37L84.86 -21.63zM171.47 28.37L214.77 53.37L214.77 103.37L171.47 128.37L128.17 103.37L128.17 53.37zM128.17 103.37L171.47 128.37L171.47 178.37L128.17 203.37L84.86 178.37L84.86 128.37zM171.47 178.37L214.77 203.37L214.77 253.37L171.47 278.37L128.17 253.37L128.17 203.37zM171.47 328.37L214.77 353.37L214.77 403.37L171.47 428.37L128.17 403.37L128.17 353.37zM171.47 478.37L214.77 503.37L214.77 553.37L171.47 578.37L128.17 553.37L128.17 503.37zM214.77 -46.63L258.07 -21.63L258.07 28.37L214.77 53.37L171.47 28.37L171.47 -21.63zM258.07 28.37L301.38 53.37L301.38 103.37L258.07 128.37L214.77 103.37L214.77 53.37zM214.77 253.37L258.07 278.37L258.07 328.37L214.77 353.37L171.47 328.37L171.47 278.37zM301.38 -46.63L344.68 -21.63L344.68 28.37L301.38 53.37L258.07 28.37L258.07 -21.63zM344.68 178.37L387.98 203.37L387.98 253.37L344.68 278.37L301.38 253.37L301.38 203.37zM344.68 478.37L387.98 503.37L387.98 553.37L344.68 578.37L301.38 553.37L301.38 503.37zM387.98 -46.63L431.28 -21.63L431.28 28.37L387.98 53.37L344.68 28.37L344.68 -21.63zM431.28 28.37L474.59 53.37L474.59 103.37L431.28 128.37L387.98 103.37L387.98 53.37zM387.98 103.37L431.28 128.37L431.28 178.37L387.98 203.37L344.68 178.37L344.68 128.37zM431.28 328.37L474.59 353.37L474.59 403.37L431.28 428.37L387.98 403.37L387.98 353.37zM517.89 28.37L561.19 53.37L561.19 103.37L517.89 128.37L474.59 103.37L474.59 53.37zM517.89 178.37L561.19 203.37L561.19 253.37L517.89 278.37L474.59 253.37L474.59 203.37zM474.59 253.37L517.89 278.37L517.89 328.37L474.59 353.37L431.28 328.37L431.28 278.37zM474.59 403.37L517.89 428.37L517.89 478.37L474.59 503.37L431.28 478.37L431.28 428.37zM561.19 -46.63L604.49 -21.63L604.49 28.37L561.19 53.37L517.89 28.37L517.89 -21.63zM604.49 178.37L647.8 203.37L647.8 253.37L604.49 278.37L561.19 253.37L561.19 203.37zM604.49 328.37L647.8 353.37L647.8 403.37L604.49 428.37L561.19 403.37L561.19 353.37zM604.49 478.37L647.8 503.37L647.8 553.37L604.49 578.37L561.19 553.37L561.19 503.37zM647.8 -46.63L691.1 -21.63L691.1 28.37L647.8 53.37L604.49 28.37L604.49 -21.63zM691.1 28.37L734.4 53.37L734.4 103.37L691.1 128.37L647.8 103.37L647.8 53.37zM691.1 178.37L734.4 203.37L734.4 253.37L691.1 278.37L647.8 253.37L647.8 203.37zM647.8 253.37L691.1 278.37L691.1 328.37L647.8 353.37L604.49 328.37L604.49 278.37zM647.8 403.37L691.1 428.37L691.1 478.37L647.8 503.37L604.49 478.37L604.49 428.37zM691.1 478.37L734.4 503.37L734.4 553.37L691.1 578.37L647.8 553.37L647.8 503.37zM734.4 -46.63L777.7 -21.63L777.7 28.37L734.4 53.37L691.1 28.37L691.1 -21.63zM734.4 103.37L777.7 128.37L777.7 178.37L734.4 203.37L691.1 178.37L691.1 128.37zM734.4 253.37L777.7 278.37L777.7 328.37L734.4 353.37L691.1 328.37L691.1 278.37zM777.7 328.37L821.01 353.37L821.01 403.37L777.7 428.37L734.4 403.37L734.4 353.37zM821.01 -46.63L864.31 -21.63L864.31 28.37L821.01 53.37L777.7 28.37L777.7 -21.63zM864.31 28.37L907.61 53.37L907.61 103.37L864.31 128.37L821.01 103.37L821.01 53.37zM864.31 328.37L907.61 353.37L907.61 403.37L864.31 428.37L821.01 403.37L821.01 353.37zM821.01 403.37L864.31 428.37L864.31 478.37L821.01 503.37L777.7 478.37L777.7 428.37zM950.91 328.37L994.22 353.37L994.22 403.37L950.91 428.37L907.61 403.37L907.61 353.37zM907.61 403.37L950.91 428.37L950.91 478.37L907.61 503.37L864.31 478.37L864.31 428.37zM950.91 478.37L994.22 503.37L994.22 553.37L950.91 578.37L907.61 553.37L907.61 503.37zM1037.52 28.37L1080.82 53.37L1080.82 103.37L1037.52 128.37L994.22 103.37L994.22 53.37zM994.22 103.37L1037.52 128.37L1037.52 178.37L994.22 203.37L950.91 178.37L950.91 128.37zM1037.52 178.37L1080.82 203.37L1080.82 253.37L1037.52 278.37L994.22 253.37L994.22 203.37zM994.22 253.37L1037.52 278.37L1037.52 328.37L994.22 353.37L950.91 328.37L950.91 278.37zM1124.12 478.37L1167.42 503.37L1167.42 553.37L1124.12 578.37L1080.82 553.37L1080.82 503.37zM1210.73 28.37L1254.03 53.37L1254.03 103.37L1210.73 128.37L1167.42 103.37L1167.42 53.37zM1167.42 103.37L1210.73 128.37L1210.73 178.37L1167.42 203.37L1124.12 178.37L1124.12 128.37zM1167.42 403.37L1210.73 428.37L1210.73 478.37L1167.42 503.37L1124.12 478.37L1124.12 428.37zM1210.73 478.37L1254.03 503.37L1254.03 553.37L1210.73 578.37L1167.42 553.37L1167.42 503.37zM1254.03 -46.63L1297.33 -21.63L1297.33 28.37L1254.03 53.37L1210.73 28.37L1210.73 -21.63zM1297.33 28.37L1340.63 53.37L1340.63 103.37L1297.33 128.37L1254.03 103.37L1254.03 53.37zM1254.03 103.37L1297.33 128.37L1297.33 178.37L1254.03 203.37L1210.73 178.37L1210.73 128.37zM1297.33 478.37L1340.63 503.37L1340.63 553.37L1297.33 578.37L1254.03 553.37L1254.03 503.37zM1340.63 403.37L1383.94 428.37L1383.94 478.37L1340.63 503.37L1297.33 478.37L1297.33 428.37zM1427.24 -46.63L1470.54 -21.63L1470.54 28.37L1427.24 53.37L1383.94 28.37L1383.94 -21.63zM1470.54 28.37L1513.85 53.37L1513.85 103.37L1470.54 128.37L1427.24 103.37L1427.24 53.37zM1427.24 253.37L1470.54 278.37L1470.54 328.37L1427.24 353.37L1383.94 328.37L1383.94 278.37zM1470.54 328.37L1513.85 353.37L1513.85 403.37L1470.54 428.37L1427.24 403.37L1427.24 353.37zM1470.54 478.37L1513.85 503.37L1513.85 553.37L1470.54 578.37L1427.24 553.37L1427.24 503.37z" stroke="rgba(6, 80, 156, 0.93)" stroke-width="2"></path></g><defs><mask id="SvgjsMask1001"><rect width="1440" height="560" fill="#ffffff"></rect></mask></defs></svg>