<svg width="25" height="24" viewBox="0 0 25 24" fill="none" xmlns="http://www.w3.org/2000/svg">
<path d="M6.58577 23.9213C5.15848 23.8564 4.38314 23.6189 3.86743 23.4178C3.1841 23.1517 2.69693 22.835 2.18407 22.3229C1.67122 21.8107 1.35381 21.3236 1.08918 20.6402C0.888029 20.1245 0.650504 19.3492 0.585595 17.9219C0.514266 16.379 0.5 15.9161 0.5 12.0073C0.5 8.09848 0.515692 7.63627 0.584881 6.092C0.64979 4.66471 0.888742 3.89079 1.08846 3.37366C1.35452 2.69033 1.67193 2.20315 2.18336 1.68959C2.6955 1.17744 3.18268 0.859318 3.86672 0.594688C4.38243 0.393541 5.15777 0.156016 6.58506 0.0911069C8.12861 0.0204913 8.59225 0.00622559 12.4996 0.00622559C16.4085 0.00622559 16.8707 0.0219179 18.4149 0.0911069C19.8422 0.156016 20.6161 0.394968 21.1333 0.594688C21.8166 0.859318 22.3038 1.17744 22.8166 1.68959C23.3295 2.20173 23.6455 2.68962 23.9115 3.37294C24.1127 3.88865 24.3502 4.664 24.4151 6.09129C24.4857 7.63555 24.5 8.09776 24.5 12.0066C24.5 15.914 24.4857 16.3776 24.4151 17.9219C24.3502 19.3492 24.1113 20.1245 23.9115 20.6402C23.6455 21.3236 23.3288 21.8107 22.8166 22.3229C22.3045 22.835 21.8166 23.1517 21.1333 23.4178C20.6176 23.6189 19.8422 23.8564 18.4149 23.9213C16.8721 23.992 16.4085 24.0062 12.4996 24.0062C8.59225 24.0062 8.12862 23.9927 6.58577 23.9213Z" fill="url(#paint0_radial_61_653)"/>
<path d="M9.77709 11.9212C9.77709 10.4642 10.9579 9.28268 12.415 9.28268C13.8721 9.28268 15.0535 10.4642 15.0535 11.9212C15.0535 13.3783 13.8721 14.5598 12.415 14.5598C10.9579 14.5598 9.77709 13.3783 9.77709 11.9212ZM8.35074 11.9212C8.35074 14.1659 10.1703 15.9855 12.415 15.9855C14.6597 15.9855 16.4793 14.1659 16.4793 11.9212C16.4793 9.67653 14.6597 7.85697 12.415 7.85697C10.1703 7.85697 8.35081 9.6764 8.35081 11.9212M15.6904 7.69582C15.6903 7.88367 15.746 8.06733 15.8503 8.22356C15.9546 8.3798 16.1029 8.5016 16.2764 8.57355C16.4499 8.64551 16.6409 8.6644 16.8251 8.62782C17.0094 8.59125 17.1787 8.50086 17.3116 8.36808C17.4444 8.2353 17.535 8.0661 17.5717 7.88187C17.6084 7.69764 17.5897 7.50666 17.5179 7.33308C17.446 7.15949 17.3244 7.01111 17.1682 6.90668C17.0121 6.80225 16.8285 6.74647 16.6406 6.7464H16.6402C16.3884 6.74652 16.147 6.84657 15.9689 7.02458C15.7908 7.2026 15.6906 7.44402 15.6904 7.69582ZM9.21734 18.3639C8.44566 18.3288 8.02623 18.2002 7.74749 18.0916C7.37796 17.9478 7.11429 17.7764 6.83708 17.4996C6.55986 17.2228 6.38827 16.9593 6.24504 16.5898C6.13638 16.3112 6.00784 15.8916 5.97276 15.12C5.93439 14.2857 5.92673 14.035 5.92673 11.9214C5.92673 9.80767 5.93502 9.55774 5.97276 8.72274C6.0079 7.95106 6.13739 7.53233 6.24504 7.2529C6.3889 6.88336 6.56024 6.6197 6.83708 6.34248C7.11391 6.06527 7.37732 5.89367 7.74749 5.75044C8.0261 5.64178 8.44566 5.51324 9.21734 5.47816C10.0516 5.43979 10.3023 5.43213 12.415 5.43213C14.5277 5.43213 14.7786 5.4403 15.6136 5.47829C16.3853 5.51343 16.804 5.64292 17.0835 5.75056C17.453 5.89379 17.7167 6.06577 17.9939 6.34261C18.2711 6.61944 18.442 6.88349 18.5859 7.25302C18.6946 7.53163 18.8231 7.95119 18.8582 8.72287C18.8966 9.55787 18.9042 9.80779 18.9042 11.9215C18.9042 14.0352 18.8966 14.2851 18.8582 15.1201C18.823 15.8918 18.6939 16.3112 18.5859 16.5899C18.442 16.9595 18.2707 17.2231 17.9939 17.4997C17.717 17.7763 17.453 17.9479 17.0835 18.0918C16.8048 18.2004 16.3853 18.329 15.6136 18.364C14.7793 18.4024 14.5287 18.4101 12.415 18.4101C10.3013 18.4101 10.0514 18.4024 9.21734 18.364M9.1518 4.05416C8.3092 4.09253 7.73344 4.22614 7.23061 4.42179C6.71018 4.62385 6.26903 4.89492 5.82852 5.33474C5.388 5.77456 5.11762 6.21578 4.91557 6.73684C4.71991 7.23998 4.58631 7.81543 4.54793 8.65803C4.50893 9.50196 4.5 9.77176 4.5 11.9212C4.5 14.0707 4.50893 14.3405 4.54793 15.1844C4.58631 16.0271 4.71991 16.6025 4.91557 17.1056C5.11762 17.626 5.38806 18.0681 5.82852 18.5077C6.26897 18.9473 6.70955 19.218 7.23061 19.4207C7.73439 19.6163 8.3092 19.7499 9.1518 19.7883C9.99618 19.8267 10.2655 19.8362 12.415 19.8362C14.5645 19.8362 14.8343 19.8273 15.6782 19.7883C16.5209 19.7499 17.0962 19.6163 17.5994 19.4207C18.1198 19.218 18.561 18.9475 19.0015 18.5077C19.442 18.0679 19.7118 17.626 19.9144 17.1056C20.1101 16.6025 20.2443 16.027 20.2821 15.1844C20.3204 14.3399 20.3294 14.0707 20.3294 11.9212C20.3294 9.77176 20.3204 9.50196 20.2821 8.65803C20.2437 7.81537 20.1101 7.23966 19.9144 6.73684C19.7118 6.21641 19.4413 5.77526 19.0015 5.33474C18.5617 4.89423 18.1198 4.62385 17.6 4.42179C17.0962 4.22614 16.5208 4.0919 15.6788 4.05416C14.8348 4.0156 14.5651 4.00623 12.416 4.00623C10.2668 4.00623 9.99649 4.01515 9.15212 4.05416" fill="white"/>
<defs>
<radialGradient id="paint0_radial_61_653" cx="0" cy="0" r="1" gradientUnits="userSpaceOnUse" gradientTransform="translate(2.05326 23.4805) scale(30.4711)">
<stop offset="0.09" stop-color="#FA8F21"/>
<stop offset="0.78" stop-color="#D82D7E"/>
</radialGradient>
</defs>
</svg>
