<svg width="25" height="24" viewBox="0 0 25 24" fill="none" xmlns="http://www.w3.org/2000/svg">
<rect x="0.5" y="0.00622559" width="24" height="24" rx="12" fill="#0A66C2"/>
<g clip-path="url(#clip0_61_657)">
<path d="M5.5 6.87388C5.5 6.42342 5.65766 6.0518 5.97297 5.75901C6.28828 5.46622 6.6982 5.31982 7.2027 5.31982C7.6982 5.31982 8.09909 5.46396 8.40541 5.75226C8.72072 6.04955 8.87838 6.43693 8.87838 6.91442C8.87838 7.34685 8.72523 7.7072 8.41892 7.9955C8.10361 8.2928 7.68919 8.44145 7.17568 8.44145H7.16216C6.66666 8.44145 6.26577 8.2928 5.95946 7.9955C5.65315 7.6982 5.5 7.32432 5.5 6.87388ZM5.67568 18.6982V9.67118H8.67568V18.6982H5.67568ZM10.3378 18.6982H13.3378V13.6577C13.3378 13.3423 13.3739 13.0991 13.4459 12.9279C13.5721 12.6216 13.7635 12.3626 14.0203 12.1509C14.277 11.9392 14.5991 11.8333 14.9865 11.8333C15.9955 11.8333 16.5 12.5135 16.5 13.8739V18.6982H19.5V13.5225C19.5 12.1892 19.1847 11.1779 18.5541 10.4887C17.9234 9.79955 17.0901 9.45496 16.0541 9.45496C14.8919 9.45496 13.9865 9.95496 13.3378 10.955V10.982H13.3243L13.3378 10.955V9.67118H10.3378C10.3559 9.95946 10.3649 10.8559 10.3649 12.3604C10.3649 13.8649 10.3559 15.9775 10.3378 18.6982Z" fill="white"/>
</g>
<defs>
<clipPath id="clip0_61_657">
<rect x="5.5" y="5.00623" width="14" height="14" fill="white"/>
</clipPath>
</defs>
</svg>
