<svg width="25" height="24" viewBox="0 0 25 24" fill="none" xmlns="http://www.w3.org/2000/svg">
<path d="M18.3172 16.657L14.0742 20.9C13.8886 21.0857 13.6683 21.233 13.4257 21.3336C13.1832 21.4341 12.9232 21.4859 12.6607 21.4859C12.3981 21.4859 12.1381 21.4341 11.8956 21.3336C11.6531 21.233 11.4327 21.0857 11.2472 20.9L7.00316 16.657C5.88438 15.5381 5.1225 14.1127 4.81385 12.5608C4.5052 11.009 4.66365 9.40047 5.26916 7.93868C5.87468 6.4769 6.90006 5.22749 8.21564 4.34846C9.53123 3.46943 11.0779 3.00024 12.6602 3.00024C14.2424 3.00024 15.7891 3.46943 17.1047 4.34846C18.4203 5.22749 19.4456 6.4769 20.0512 7.93868C20.6567 9.40047 20.8151 11.009 20.5065 12.5608C20.1978 14.1127 19.4359 15.5381 18.3172 16.657Z" stroke="black" stroke-width="2" stroke-linecap="round" stroke-linejoin="round"/>
<path d="M15.6602 11C15.6602 11.7956 15.3441 12.5587 14.7815 13.1213C14.2189 13.6839 13.4558 14 12.6602 14C11.8645 14 11.1014 13.6839 10.5388 13.1213C9.97623 12.5587 9.66016 11.7956 9.66016 11C9.66016 10.2044 9.97623 9.44129 10.5388 8.87868C11.1014 8.31607 11.8645 8 12.6602 8C13.4558 8 14.2189 8.31607 14.7815 8.87868C15.3441 9.44129 15.6602 10.2044 15.6602 11Z" stroke="black" stroke-width="2" stroke-linecap="round" stroke-linejoin="round"/>
</svg>
