<svg width="25" height="24" viewBox="0 0 25 24" fill="none" xmlns="http://www.w3.org/2000/svg">
<path d="M3.66016 8L11.5502 13.26C11.8788 13.4793 12.2651 13.5963 12.6602 13.5963C13.0553 13.5963 13.4415 13.4793 13.7702 13.26L21.6602 8M5.66016 19H19.6602C20.1906 19 20.6993 18.7893 21.0744 18.4142C21.4494 18.0391 21.6602 17.5304 21.6602 17V7C21.6602 6.46957 21.4494 5.96086 21.0744 5.58579C20.6993 5.21071 20.1906 5 19.6602 5H5.66016C5.12972 5 4.62102 5.21071 4.24594 5.58579C3.87087 5.96086 3.66016 6.46957 3.66016 7V17C3.66016 17.5304 3.87087 18.0391 4.24594 18.4142C4.62102 18.7893 5.12972 19 5.66016 19Z" stroke="black" stroke-width="2" stroke-linecap="round" stroke-linejoin="round"/>
</svg>
