<svg width="25" height="24" viewBox="0 0 25 24" fill="none" xmlns="http://www.w3.org/2000/svg">
<path d="M3.66016 5C3.66016 4.46957 3.87087 3.96086 4.24594 3.58579C4.62102 3.21071 5.12972 3 5.66016 3H8.94016C9.14995 3.00016 9.35438 3.0663 9.52451 3.18905C9.69464 3.3118 9.82186 3.48496 9.88816 3.684L11.3862 8.177C11.4621 8.40534 11.4531 8.65339 11.3609 8.87564C11.2687 9.0979 11.0994 9.27945 10.8842 9.387L8.62716 10.517C9.73347 12.9655 11.6946 14.9267 14.1432 16.033L15.2732 13.776C15.3807 13.5607 15.5623 13.3915 15.7845 13.2993C16.0068 13.2071 16.2548 13.1981 16.4832 13.274L20.9762 14.772C21.1754 14.8383 21.3486 14.9657 21.4714 15.136C21.5942 15.3064 21.6602 15.511 21.6602 15.721V19C21.6602 19.5304 21.4494 20.0391 21.0744 20.4142C20.6993 20.7893 20.1906 21 19.6602 21H18.6602C10.3762 21 3.66016 14.284 3.66016 6V5Z" stroke="black" stroke-width="2" stroke-linecap="round" stroke-linejoin="round"/>
</svg>
