<svg width="25" height="24" viewBox="0 0 25 24" fill="none" xmlns="http://www.w3.org/2000/svg">
<rect x="0.5" y="0.00622559" width="24" height="24" rx="12" fill="#1D9BF0"/>
<path d="M10.3038 18.3362C15.6258 18.3362 18.5358 13.9262 18.5358 10.1042C18.5358 9.97822 18.5358 9.85222 18.5298 9.73222C19.0938 9.32422 19.5858 8.81422 19.9758 8.23222C19.4598 8.46022 18.9018 8.61622 18.3138 8.68822C18.9138 8.32822 19.3698 7.76422 19.5858 7.08622C19.0278 7.41622 18.4098 7.65622 17.7498 7.78822C17.2218 7.22422 16.4718 6.87622 15.6378 6.87622C14.0418 6.87622 12.7458 8.17222 12.7458 9.76822C12.7458 9.99622 12.7698 10.2182 12.8238 10.4282C10.4178 10.3082 8.28784 9.15622 6.85984 7.40422C6.61384 7.83022 6.46984 8.32822 6.46984 8.85622C6.46984 9.85822 6.97984 10.7462 7.75984 11.2622C7.28584 11.2502 6.84184 11.1182 6.45184 10.9022C6.45184 10.9142 6.45184 10.9262 6.45184 10.9382C6.45184 12.3422 7.44784 13.5062 8.77384 13.7762C8.53384 13.8422 8.27584 13.8782 8.01184 13.8782C7.82584 13.8782 7.64584 13.8602 7.46584 13.8242C7.83184 14.9762 8.89984 15.8102 10.1658 15.8342C9.17584 16.6082 7.92784 17.0702 6.57184 17.0702C6.33784 17.0702 6.10984 17.0582 5.88184 17.0282C7.14784 17.8562 8.67184 18.3362 10.3038 18.3362Z" fill="white"/>
</svg>
